STARTFONT 2.1
COMMENT AUTOMATICALLY GENERATED FILE. DO NOT EDIT!
COMMENT Generated with 'ucs2any.pl ncenB18.bdf ../../../fonts/util/map-ISO8859-1 ISO8859-1'
COMMENT from an ISO10646-1 encoded source BDF font.
COMMENT ucs2any.pl by Markus Kuhn <mkuhn@acm.org>, 2000.
FONT -Adobe-New Century Schoolbook-Bold-R-Normal--18-180-75-75-P-113-ISO8859-1
SIZE 18 75 75
FONTBOUNDINGBOX 23 23 -3 -4
COMMENT $Xorg: $
COMMENT ISO10646-1 extension by Markus Kuhn <mkuhn@acm.org>, 2001-03-20
COMMENT 
COMMENT +
COMMENT  Copyright 1984-1989, 1994 Adobe Systems Incorporated.
COMMENT  Copyright 1988, 1994 Digital Equipment Corporation.
COMMENT
COMMENT  Adobe is a trademark of Adobe Systems Incorporated which may be
COMMENT  registered in certain jurisdictions.
COMMENT  Permission to use these trademarks is hereby granted only in
COMMENT  association with the images described in this file.
COMMENT
COMMENT  Permission to use, copy, modify, distribute and sell this software
COMMENT  and its documentation for any purpose and without fee is hereby
COMMENT  granted, provided that the above copyright notices appear in all
COMMENT  copies and that both those copyright notices and this permission
COMMENT  notice appear in supporting documentation, and that the names of
COMMENT  Adobe Systems and Digital Equipment Corporation not be used in
COMMENT  advertising or publicity pertaining to distribution of the software
COMMENT  without specific, written prior permission.  Adobe Systems and
COMMENT  Digital Equipment Corporation make no representations about the
COMMENT  suitability of this software for any purpose.  It is provided "as
COMMENT  is" without express or implied warranty.
COMMENT -
STARTPROPERTIES 26
FOUNDRY "Adobe"
FAMILY_NAME "New Century Schoolbook"
WEIGHT_NAME "Bold"
SLANT "R"
SETWIDTH_NAME "Normal"
ADD_STYLE_NAME ""
PIXEL_SIZE 18
POINT_SIZE 180
RESOLUTION_X 75
RESOLUTION_Y 75
SPACING "P"
AVERAGE_WIDTH 113
CHARSET_REGISTRY "ISO8859"
CHARSET_ENCODING "1"
CAP_HEIGHT 14
X_HEIGHT 9

STARTCHAR defaultchar
ENCODING 0
SWIDTH 870 0
DWIDTH 16 0
BBX 13 13 1 0
BITMAP
AAA8
0000
8008
0000
8008
0000
8008
0000
8008
0000
8008
0000
AAA8
ENDCHAR
STARTCHAR space
ENCODING 32
SWIDTH 287 0
DWIDTH 5 0
BBX 1 1 0 0
BITMAP
00
ENDCHAR
STARTCHAR exclam
ENCODING 33
SWIDTH 296 0
DWIDTH 6 0
BBX 4 14 1 0
BITMAP
60
F0
F0
F0
F0
F0
60
60
60
00
60
F0
F0
60
ENDCHAR
STARTCHAR quotedbl
ENCODING 34
SWIDTH 333 0
DWIDTH 8 0
BBX 5 5 1 9
BITMAP
D8
D8
D8
D8
D8
ENDCHAR
STARTCHAR numbersign
ENCODING 35
SWIDTH 574 0
DWIDTH 12 0
BBX 11 13 0 0
BITMAP
0D80
0D80
0D80
7FE0
7FE0
1B00
1B00
FFC0
FFC0
3600
3600
3600
3600
ENDCHAR
STARTCHAR dollar
ENCODING 36
SWIDTH 574 0
DWIDTH 11 0
BBX 9 18 1 -2
BITMAP
0800
0800
3E00
6B80
C980
C980
E800
F800
7E00
3F00
0F80
0B80
C980
C980
EB80
7F00
0800
0800
ENDCHAR
STARTCHAR percent
ENCODING 37
SWIDTH 833 0
DWIDTH 15 0
BBX 14 14 0 0
BITMAP
38C0
6740
C4C0
C480
C580
C900
7300
0238
0664
04C4
0CC4
08C4
18C8
1070
ENDCHAR
STARTCHAR ampersand
ENCODING 38
SWIDTH 852 0
DWIDTH 17 0
BBX 16 14 0 0
BITMAP
0780
0CC0
1840
18C0
1D80
1F00
0E3E
3F18
7790
E3E0
E1E0
E0F1
F1FE
3F1C
ENDCHAR
STARTCHAR quotesingle
ENCODING 39
SWIDTH 241 0
DWIDTH 5 0
BBX 2 5 1 9
BITMAP
C0
C0
C0
C0
C0
ENDCHAR
STARTCHAR parenleft
ENCODING 40
SWIDTH 389 0
DWIDTH 6 0
BBX 5 16 1 -2
BITMAP
18
30
60
60
C0
C0
C0
C0
C0
C0
C0
C0
60
60
30
18
ENDCHAR
STARTCHAR parenright
ENCODING 41
SWIDTH 389 0
DWIDTH 6 0
BBX 5 16 0 -2
BITMAP
C0
60
30
30
18
18
18
18
18
18
18
18
30
30
60
C0
ENDCHAR
STARTCHAR asterisk
ENCODING 42
SWIDTH 500 0
DWIDTH 8 0
BBX 7 7 0 7
BITMAP
38
92
D6
38
D6
92
38
ENDCHAR
STARTCHAR plus
ENCODING 43
SWIDTH 606 0
DWIDTH 11 0
BBX 10 10 0 0
BITMAP
0C00
0C00
0C00
0C00
FFC0
FFC0
0C00
0C00
0C00
0C00
ENDCHAR
STARTCHAR comma
ENCODING 44
SWIDTH 278 0
DWIDTH 5 0
BBX 4 7 0 -3
BITMAP
60
F0
F0
70
20
40
80
ENDCHAR
STARTCHAR hyphen
ENCODING 45
SWIDTH 333 0
DWIDTH 6 0
BBX 5 2 0 4
BITMAP
F8
F8
ENDCHAR
STARTCHAR period
ENCODING 46
SWIDTH 278 0
DWIDTH 5 0
BBX 4 4 0 0
BITMAP
60
F0
F0
60
ENDCHAR
STARTCHAR slash
ENCODING 47
SWIDTH 278 0
DWIDTH 7 0
BBX 6 14 0 0
BITMAP
0C
0C
0C
18
18
18
30
30
30
60
60
60
C0
C0
ENDCHAR
STARTCHAR zero
ENCODING 48
SWIDTH 574 0
DWIDTH 11 0
BBX 9 14 1 0
BITMAP
1C00
7700
6300
E380
E380
E380
E380
E380
E380
E380
E380
6300
7700
1C00
ENDCHAR
STARTCHAR one
ENCODING 49
SWIDTH 574 0
DWIDTH 11 0
BBX 7 14 2 0
BITMAP
18
38
F8
38
38
38
38
38
38
38
38
38
38
FE
ENDCHAR
STARTCHAR two
ENCODING 50
SWIDTH 574 0
DWIDTH 11 0
BBX 9 14 1 0
BITMAP
1E00
6700
E380
E380
6380
0380
0700
0700
0E00
1800
3000
6080
FF80
FF80
ENDCHAR
STARTCHAR three
ENCODING 51
SWIDTH 574 0
DWIDTH 11 0
BBX 9 14 1 0
BITMAP
1E00
6700
E380
E380
6380
0300
1C00
0300
0380
6380
E380
E380
6700
3E00
ENDCHAR
STARTCHAR four
ENCODING 52
SWIDTH 574 0
DWIDTH 11 0
BBX 9 14 1 0
BITMAP
0700
0F00
0F00
1700
1700
2700
2700
4700
4700
8700
FF80
0700
0700
0F80
ENDCHAR
STARTCHAR five
ENCODING 53
SWIDTH 574 0
DWIDTH 11 0
BBX 9 14 1 0
BITMAP
7F80
7F00
4000
4000
4000
7E00
4700
0380
0380
6380
E380
E380
6700
3E00
ENDCHAR
STARTCHAR six
ENCODING 54
SWIDTH 574 0
DWIDTH 11 0
BBX 9 14 1 0
BITMAP
1F00
7380
6380
E300
E000
EE00
F700
E380
E380
E380
E380
6380
7300
1C00
ENDCHAR
STARTCHAR seven
ENCODING 55
SWIDTH 574 0
DWIDTH 11 0
BBX 9 14 1 0
BITMAP
FF80
FF80
FF80
8300
0600
0600
0C00
0C00
1C00
1C00
3800
3800
3800
3800
ENDCHAR
STARTCHAR eight
ENCODING 56
SWIDTH 574 0
DWIDTH 11 0
BBX 9 14 1 0
BITMAP
1C00
6300
C180
C180
E180
FB00
7E00
3F00
4F80
C380
C180
C180
E300
3C00
ENDCHAR
STARTCHAR nine
ENCODING 57
SWIDTH 574 0
DWIDTH 11 0
BBX 9 14 1 0
BITMAP
1C00
6700
E300
E380
E380
E380
E380
7780
3B80
0380
6380
E300
E700
7C00
ENDCHAR
STARTCHAR colon
ENCODING 58
SWIDTH 278 0
DWIDTH 6 0
BBX 4 9 1 0
BITMAP
60
F0
F0
60
00
60
F0
F0
60
ENDCHAR
STARTCHAR semicolon
ENCODING 59
SWIDTH 278 0
DWIDTH 6 0
BBX 4 12 1 -3
BITMAP
60
F0
F0
60
00
60
F0
F0
70
20
40
80
ENDCHAR
STARTCHAR less
ENCODING 60
SWIDTH 606 0
DWIDTH 11 0
BBX 10 10 0 0
BITMAP
00C0
03C0
0F00
3C00
F000
F000
3C00
0F00
03C0
00C0
ENDCHAR
STARTCHAR equal
ENCODING 61
SWIDTH 606 0
DWIDTH 11 0
BBX 9 6 1 2
BITMAP
FF80
FF80
0000
0000
FF80
FF80
ENDCHAR
STARTCHAR greater
ENCODING 62
SWIDTH 606 0
DWIDTH 11 0
BBX 10 10 0 0
BITMAP
C000
F000
3C00
0F00
03C0
03C0
0F00
3C00
F000
C000
ENDCHAR
STARTCHAR question
ENCODING 63
SWIDTH 500 0
DWIDTH 10 0
BBX 9 14 0 0
BITMAP
1F00
6780
E380
E380
6380
0300
0600
0C00
1800
0000
1800
3C00
3C00
1800
ENDCHAR
STARTCHAR at
ENCODING 64
SWIDTH 747 0
DWIDTH 16 0
BBX 15 14 0 0
BITMAP
07F0
1C1C
300C
63E6
6666
CC66
CC66
D8CC
D8CC
D9D8
CEF0
6008
7870
1FC0
ENDCHAR
STARTCHAR A
ENCODING 65
SWIDTH 759 0
DWIDTH 14 0
BBX 14 14 0 0
BITMAP
0300
0300
0780
0780
0F80
09C0
09C0
19E0
10E0
3FE0
20F0
6070
4078
E0FC
ENDCHAR
STARTCHAR B
ENCODING 66
SWIDTH 778 0
DWIDTH 14 0
BBX 12 14 1 0
BITMAP
FFC0
71E0
70E0
70E0
70E0
71C0
7F80
70E0
70F0
7070
7070
7070
70E0
FF80
ENDCHAR
STARTCHAR C
ENCODING 67
SWIDTH 778 0
DWIDTH 14 0
BBX 12 14 1 0
BITMAP
0F90
3C70
7830
7030
F010
E010
E000
E000
E000
F010
7010
7820
3C60
0F80
ENDCHAR
STARTCHAR D
ENCODING 68
SWIDTH 833 0
DWIDTH 16 0
BBX 14 14 1 0
BITMAP
FFC0
70F0
7078
7038
703C
701C
701C
701C
701C
703C
7038
7078
70F0
FFC0
ENDCHAR
STARTCHAR E
ENCODING 69
SWIDTH 759 0
DWIDTH 13 0
BBX 11 14 1 0
BITMAP
FFE0
70E0
7060
7120
7120
7300
7F00
7300
7100
7120
7020
7060
70E0
FFE0
ENDCHAR
STARTCHAR F
ENCODING 70
SWIDTH 722 0
DWIDTH 13 0
BBX 11 14 1 0
BITMAP
FFE0
70E0
7060
7120
7120
7320
7F00
7300
7100
7100
7000
7000
7000
F800
ENDCHAR
STARTCHAR G
ENCODING 71
SWIDTH 833 0
DWIDTH 15 0
BBX 13 14 1 0
BITMAP
0F90
3C70
7830
7030
F010
E010
E000
E000
E0F8
F070
7070
7870
3CF0
0F90
ENDCHAR
STARTCHAR H
ENCODING 72
SWIDTH 870 0
DWIDTH 16 0
BBX 14 14 1 0
BITMAP
FCFC
7038
7038
7038
7038
7038
7FF8
7038
7038
7038
7038
7038
7038
FCFC
ENDCHAR
STARTCHAR I
ENCODING 73
SWIDTH 444 0
DWIDTH 9 0
BBX 5 14 2 0
BITMAP
F8
70
70
70
70
70
70
70
70
70
70
70
70
F8
ENDCHAR
STARTCHAR J
ENCODING 74
SWIDTH 648 0
DWIDTH 12 0
BBX 11 14 0 0
BITMAP
07E0
01C0
01C0
01C0
01C0
01C0
01C0
01C0
61C0
F1C0
F1C0
C3C0
4780
3E00
ENDCHAR
STARTCHAR K
ENCODING 75
SWIDTH 815 0
DWIDTH 16 0
BBX 15 14 1 0
BITMAP
FC7C
7030
7060
70C0
7180
7300
7780
7FC0
7BC0
71E0
70F0
70F8
707C
FCFE
ENDCHAR
STARTCHAR L
ENCODING 76
SWIDTH 722 0
DWIDTH 12 0
BBX 11 14 1 0
BITMAP
FC00
7000
7000
7000
7000
7000
7000
7000
7000
7020
7020
7060
70E0
FFE0
ENDCHAR
STARTCHAR M
ENCODING 77
SWIDTH 981 0
DWIDTH 19 0
BBX 17 14 1 0
BITMAP
7C0780
3C0F00
3E0F00
2E1F00
2F1700
2F1700
273700
27A700
23E700
23C700
23C700
21C700
718700
F88F80
ENDCHAR
STARTCHAR N
ENCODING 78
SWIDTH 833 0
DWIDTH 16 0
BBX 15 14 1 0
BITMAP
F83E
7C1C
3C08
3E08
2F08
2788
2388
21C8
21E8
20E8
2078
2078
7038
F818
ENDCHAR
STARTCHAR O
ENCODING 79
SWIDTH 833 0
DWIDTH 16 0
BBX 15 14 0 0
BITMAP
0FE0
3C78
783C
701C
F01E
E00E
E00E
E00E
E00E
F01E
701C
783C
3C78
0FE0
ENDCHAR
STARTCHAR P
ENCODING 80
SWIDTH 759 0
DWIDTH 14 0
BBX 12 14 1 0
BITMAP
FFE0
70F0
7070
7070
7070
70F0
71E0
7F80
7000
7000
7000
7000
7000
FC00
ENDCHAR
STARTCHAR Q
ENCODING 81
SWIDTH 833 0
DWIDTH 16 0
BBX 15 18 0 -4
BITMAP
0FE0
3C78
783C
701C
F01E
E00E
E00E
E00E
E00E
F79E
79DC
70FC
3CF8
0FE0
0060
0074
007C
0038
ENDCHAR
STARTCHAR R
ENCODING 82
SWIDTH 815 0
DWIDTH 16 0
BBX 14 14 1 0
BITMAP
FFE0
70F0
7070
7070
70F0
71E0
7F80
71C0
71E0
70E0
70E0
70F0
7074
F878
ENDCHAR
STARTCHAR S
ENCODING 83
SWIDTH 667 0
DWIDTH 12 0
BBX 11 14 0 0
BITMAP
3F40
61C0
C0C0
C040
E000
FE00
7FC0
7FE0
0FE0
80E0
8060
C060
E0C0
BF80
ENDCHAR
STARTCHAR T
ENCODING 84
SWIDTH 722 0
DWIDTH 13 0
BBX 11 14 1 0
BITMAP
FFE0
CE60
CE60
8E20
8E20
0E00
0E00
0E00
0E00
0E00
0E00
0E00
0E00
1F00
ENDCHAR
STARTCHAR U
ENCODING 85
SWIDTH 833 0
DWIDTH 16 0
BBX 14 14 1 0
BITMAP
F87C
7038
7010
7010
7010
7010
7010
7010
7010
7010
7010
7010
3820
1FC0
ENDCHAR
STARTCHAR V
ENCODING 86
SWIDTH 759 0
DWIDTH 14 0
BBX 14 14 0 0
BITMAP
F87C
7038
7830
3820
3820
3C60
1C40
1E40
0EC0
0E80
0780
0780
0300
0300
ENDCHAR
STARTCHAR W
ENCODING 87
SWIDTH 981 0
DWIDTH 19 0
BBX 19 14 0 0
BITMAP
FBF3E0
71E1C0
70E180
78E100
38F100
39F300
3D7200
1D3A00
1F3E00
1E3C00
0E1C00
0E1C00
0C1800
040800
ENDCHAR
STARTCHAR X
ENCODING 88
SWIDTH 722 0
DWIDTH 17 0
BBX 16 14 0 0
BITMAP
7E3F
3C1C
1E18
0E30
0F60
07C0
03C0
03E0
06F0
0C70
1878
303C
703E
F87F
ENDCHAR
STARTCHAR Y
ENCODING 89
SWIDTH 722 0
DWIDTH 15 0
BBX 13 14 1 0
BITMAP
F878
7030
7820
3860
3C40
1CC0
1F80
0F80
0F00
0700
0700
0700
0700
0F80
ENDCHAR
STARTCHAR Z
ENCODING 90
SWIDTH 667 0
DWIDTH 13 0
BBX 11 14 1 0
BITMAP
FFE0
E1E0
C1C0
83C0
8780
0700
0F00
1E00
1C00
3C20
7820
7060
F0E0
FFE0
ENDCHAR
STARTCHAR bracketleft
ENCODING 91
SWIDTH 389 0
DWIDTH 5 0
BBX 4 16 1 -2
BITMAP
F0
C0
C0
C0
C0
C0
C0
C0
C0
C0
C0
C0
C0
C0
C0
F0
ENDCHAR
STARTCHAR backslash
ENCODING 92
SWIDTH 606 0
DWIDTH 9 0
BBX 8 14 0 0
BITMAP
C0
C0
60
60
30
30
18
18
0C
0C
06
06
03
03
ENDCHAR
STARTCHAR bracketright
ENCODING 93
SWIDTH 389 0
DWIDTH 5 0
BBX 4 16 0 -2
BITMAP
F0
30
30
30
30
30
30
30
30
30
30
30
30
30
30
F0
ENDCHAR
STARTCHAR asciicircum
ENCODING 94
SWIDTH 606 0
DWIDTH 9 0
BBX 8 8 0 6
BITMAP
18
18
3C
3C
66
66
C3
C3
ENDCHAR
STARTCHAR underscore
ENCODING 95
SWIDTH 500 0
DWIDTH 10 0
BBX 10 2 0 -3
BITMAP
FFC0
FFC0
ENDCHAR
STARTCHAR grave
ENCODING 96
SWIDTH 333 0
DWIDTH 7 0
BBX 5 4 1 10
BITMAP
C0
E0
70
18
ENDCHAR
STARTCHAR a
ENCODING 97
SWIDTH 611 0
DWIDTH 11 0
BBX 10 9 0 0
BITMAP
7F00
E380
C380
0780
3B80
E380
E380
E780
7BC0
ENDCHAR
STARTCHAR b
ENCODING 98
SWIDTH 648 0
DWIDTH 12 0
BBX 12 14 -1 0
BITMAP
F000
7000
7000
7000
7000
7780
78E0
7070
7070
7070
7070
7070
78E0
6F80
ENDCHAR
STARTCHAR c
ENCODING 99
SWIDTH 556 0
DWIDTH 10 0
BBX 9 9 0 0
BITMAP
1F00
7380
E180
E000
E000
E000
E080
7180
1E00
ENDCHAR
STARTCHAR d
ENCODING 100
SWIDTH 667 0
DWIDTH 13 0
BBX 12 14 0 0
BITMAP
01E0
00E0
00E0
00E0
00E0
1EE0
71E0
E0E0
E0E0
E0E0
E0E0
E0E0
71E0
1EF0
ENDCHAR
STARTCHAR e
ENCODING 101
SWIDTH 574 0
DWIDTH 11 0
BBX 10 9 0 0
BITMAP
1E00
7380
E1C0
E1C0
FFC0
E000
E040
70C0
1F00
ENDCHAR
STARTCHAR f
ENCODING 102
SWIDTH 389 0
DWIDTH 7 0
BBX 8 14 0 0
BITMAP
1E
37
77
70
70
FC
70
70
70
70
70
70
70
F8
ENDCHAR
STARTCHAR g
ENCODING 103
SWIDTH 611 0
DWIDTH 11 0
BBX 11 15 0 -4
BITMAP
0060
00E0
3F00
7380
6180
6180
7380
3F00
6000
7F80
3FC0
C1C0
C0C0
E180
7F00
ENDCHAR
STARTCHAR h
ENCODING 104
SWIDTH 685 0
DWIDTH 13 0
BBX 12 14 0 0
BITMAP
F000
7000
7000
7000
7000
77C0
79E0
70E0
70E0
70E0
70E0
70E0
70E0
F9F0
ENDCHAR
STARTCHAR i
ENCODING 105
SWIDTH 370 0
DWIDTH 6 0
BBX 5 14 0 0
BITMAP
70
70
70
00
00
F0
70
70
70
70
70
70
70
F8
ENDCHAR
STARTCHAR j
ENCODING 106
SWIDTH 352 0
DWIDTH 6 0
BBX 7 18 -3 -4
BITMAP
0E
0E
0E
00
00
1E
0E
0E
0E
0E
0E
0E
0E
0E
0E
EE
EC
78
ENDCHAR
STARTCHAR k
ENCODING 107
SWIDTH 667 0
DWIDTH 13 0
BBX 12 14 0 0
BITMAP
F000
7000
7000
7000
7000
73E0
7180
7200
7600
7F00
7780
73C0
71E0
FBF0
ENDCHAR
STARTCHAR l
ENCODING 108
SWIDTH 352 0
DWIDTH 6 0
BBX 5 14 0 0
BITMAP
F0
70
70
70
70
70
70
70
70
70
70
70
70
F8
ENDCHAR
STARTCHAR m
ENCODING 109
SWIDTH 963 0
DWIDTH 20 0
BBX 19 9 0 0
BITMAP
F7DF80
79F3C0
70E1C0
70E1C0
70E1C0
70E1C0
70E1C0
70E1C0
F9F3E0
ENDCHAR
STARTCHAR n
ENCODING 110
SWIDTH 685 0
DWIDTH 13 0
BBX 12 9 0 0
BITMAP
F7C0
79E0
70E0
70E0
70E0
70E0
70E0
70E0
F9F0
ENDCHAR
STARTCHAR o
ENCODING 111
SWIDTH 611 0
DWIDTH 12 0
BBX 11 9 0 0
BITMAP
1F00
71C0
E0E0
E0E0
E0E0
E0E0
E0E0
71C0
1F00
ENDCHAR
STARTCHAR p
ENCODING 112
SWIDTH 667 0
DWIDTH 12 0
BBX 12 13 -1 -4
BITMAP
E780
78E0
7070
7070
7070
7070
7070
78E0
7780
7000
7000
7000
F800
ENDCHAR
STARTCHAR q
ENCODING 113
SWIDTH 648 0
DWIDTH 12 0
BBX 12 13 0 -4
BITMAP
1E60
71E0
E0E0
E0E0
E0E0
E0E0
E0E0
71E0
1EE0
00E0
00E0
00E0
01F0
ENDCHAR
STARTCHAR r
ENCODING 114
SWIDTH 519 0
DWIDTH 9 0
BBX 8 9 0 0
BITMAP
F7
7B
73
70
70
70
70
70
F8
ENDCHAR
STARTCHAR s
ENCODING 115
SWIDTH 500 0
DWIDTH 10 0
BBX 9 9 0 0
BITMAP
3D00
6300
E100
FC00
7F00
0F80
8380
C300
BE00
ENDCHAR
STARTCHAR t
ENCODING 116
SWIDTH 426 0
DWIDTH 8 0
BBX 7 13 0 0
BITMAP
10
30
30
70
FC
70
70
70
70
70
72
72
3C
ENDCHAR
STARTCHAR u
ENCODING 117
SWIDTH 685 0
DWIDTH 13 0
BBX 12 9 0 0
BITMAP
F1E0
70E0
70E0
70E0
70E0
70E0
70E0
79E0
3EF0
ENDCHAR
STARTCHAR v
ENCODING 118
SWIDTH 611 0
DWIDTH 9 0
BBX 10 9 -1 0
BITMAP
F9C0
7080
7080
3900
3900
1E00
1E00
0C00
0C00
ENDCHAR
STARTCHAR w
ENCODING 119
SWIDTH 889 0
DWIDTH 15 0
BBX 16 9 -1 0
BITMAP
FBE7
71C2
71C2
39E4
39E4
1E78
1E78
0C30
0C30
ENDCHAR
STARTCHAR x
ENCODING 120
SWIDTH 611 0
DWIDTH 12 0
BBX 11 9 0 0
BITMAP
FCE0
78C0
3D00
1E00
0E00
0F00
1780
63C0
E7E0
ENDCHAR
STARTCHAR y
ENCODING 121
SWIDTH 611 0
DWIDTH 12 0
BBX 11 13 0 -4
BITMAP
F8E0
7040
7040
3880
3880
1D00
1D00
0E00
0E00
0400
C400
E800
7000
ENDCHAR
STARTCHAR z
ENCODING 122
SWIDTH 537 0
DWIDTH 10 0
BBX 8 9 0 0
BITMAP
FF
CF
8E
1C
38
39
71
F3
FF
ENDCHAR
STARTCHAR braceleft
ENCODING 123
SWIDTH 389 0
DWIDTH 6 0
BBX 5 16 0 -2
BITMAP
18
20
60
60
60
60
60
C0
60
60
60
60
60
60
20
18
ENDCHAR
STARTCHAR bar
ENCODING 124
SWIDTH 606 0
DWIDTH 11 0
BBX 2 14 4 0
BITMAP
C0
C0
C0
C0
C0
C0
C0
C0
C0
C0
C0
C0
C0
C0
ENDCHAR
STARTCHAR braceright
ENCODING 125
SWIDTH 389 0
DWIDTH 6 0
BBX 5 16 0 -2
BITMAP
C0
20
30
30
30
30
30
18
30
30
30
30
30
30
20
C0
ENDCHAR
STARTCHAR asciitilde
ENCODING 126
SWIDTH 606 0
DWIDTH 12 0
BBX 10 3 1 4
BITMAP
39C0
7F80
E700
ENDCHAR
STARTCHAR space
ENCODING 160
SWIDTH 287 0
DWIDTH 5 0
BBX 1 1 0 0
BITMAP
00
ENDCHAR
STARTCHAR exclamdown
ENCODING 161
SWIDTH 296 0
DWIDTH 7 0
BBX 4 14 1 -4
BITMAP
60
F0
F0
60
00
60
60
60
F0
F0
F0
F0
F0
60
ENDCHAR
STARTCHAR cent
ENCODING 162
SWIDTH 574 0
DWIDTH 11 0
BBX 9 13 1 -2
BITMAP
0080
0080
1F00
7380
E380
E400
E400
E800
E880
7180
1E00
2000
2000
ENDCHAR
STARTCHAR sterling
ENCODING 163
SWIDTH 574 0
DWIDTH 11 0
BBX 10 14 0 0
BITMAP
1F00
3180
7380
7380
7000
7000
3800
FF80
1C00
1C00
1840
70C0
9FC0
EF80
ENDCHAR
STARTCHAR currency
ENCODING 164
SWIDTH 606 0
DWIDTH 10 0
BBX 9 9 0 2
BITMAP
DD80
FF80
6300
C180
C180
C180
6300
FF80
DD80
ENDCHAR
STARTCHAR yen
ENCODING 165
SWIDTH 722 0
DWIDTH 15 0
BBX 13 14 1 0
BITMAP
F878
7030
7820
3860
1C40
1CC0
0F80
1FC0
0700
1FC0
0700
0700
0700
0F80
ENDCHAR
STARTCHAR brokenbar
ENCODING 166
SWIDTH 606 0
DWIDTH 11 0
BBX 2 14 4 0
BITMAP
C0
C0
C0
C0
C0
C0
00
00
C0
C0
C0
C0
C0
C0
ENDCHAR
STARTCHAR section
ENCODING 167
SWIDTH 500 0
DWIDTH 8 0
BBX 7 16 0 -2
BITMAP
78
CC
8C
C0
70
7C
9E
86
C2
F2
7C
1C
04
C4
CC
78
ENDCHAR
STARTCHAR dieresis
ENCODING 168
SWIDTH 333 0
DWIDTH 10 0
BBX 6 2 2 10
BITMAP
CC
CC
ENDCHAR
STARTCHAR copyright
ENCODING 169
SWIDTH 747 0
DWIDTH 15 0
BBX 14 14 0 0
BITMAP
0780
1860
2010
47C8
4CC8
9844
9804
9804
9804
4C48
4788
2010
1860
0780
ENDCHAR
STARTCHAR ordfeminine
ENCODING 170
SWIDTH 367 0
DWIDTH 8 0
BBX 7 8 0 6
BITMAP
78
CC
3C
CC
DC
6E
00
FE
ENDCHAR
STARTCHAR guillemotleft
ENCODING 171
SWIDTH 500 0
DWIDTH 9 0
BBX 8 5 0 3
BITMAP
11
66
CC
66
11
ENDCHAR
STARTCHAR logicalnot
ENCODING 172
SWIDTH 606 0
DWIDTH 10 0
BBX 9 6 0 2
BITMAP
FF80
FF80
0180
0180
0180
0180
ENDCHAR
STARTCHAR hyphen
ENCODING 173
SWIDTH 333 0
DWIDTH 6 0
BBX 5 2 0 4
BITMAP
F8
F8
ENDCHAR
STARTCHAR registered
ENCODING 174
SWIDTH 747 0
DWIDTH 15 0
BBX 14 14 0 0
BITMAP
0780
1860
2010
5F88
4CC8
8CC4
8F84
8D84
8CC4
5EE8
4008
2010
1860
0780
ENDCHAR
STARTCHAR macron
ENCODING 175
SWIDTH 333 0
DWIDTH 8 0
BBX 6 2 1 10
BITMAP
FC
FC
ENDCHAR
STARTCHAR degree
ENCODING 176
SWIDTH 400 0
DWIDTH 7 0
BBX 6 6 0 8
BITMAP
78
CC
84
84
CC
78
ENDCHAR
STARTCHAR plusminus
ENCODING 177
SWIDTH 606 0
DWIDTH 11 0
BBX 10 11 0 0
BITMAP
0C00
0C00
0C00
FFC0
FFC0
0C00
0C00
0C00
0000
FFC0
FFC0
ENDCHAR
STARTCHAR twosuperior
ENCODING 178
SWIDTH 344 0
DWIDTH 6 0
BBX 6 8 0 6
BITMAP
78
CC
CC
18
30
60
C4
FC
ENDCHAR
STARTCHAR threesuperior
ENCODING 179
SWIDTH 344 0
DWIDTH 6 0
BBX 6 8 0 6
BITMAP
78
CC
0C
38
0C
CC
CC
78
ENDCHAR
STARTCHAR acute
ENCODING 180
SWIDTH 333 0
DWIDTH 7 0
BBX 5 4 1 10
BITMAP
18
38
70
C0
ENDCHAR
STARTCHAR mu
ENCODING 181
SWIDTH 685 0
DWIDTH 13 0
BBX 12 13 0 -4
BITMAP
F1E0
70E0
70E0
70E0
70E0
70E0
70E0
79E0
7EF0
6000
7000
7000
2000
ENDCHAR
STARTCHAR paragraph
ENCODING 182
SWIDTH 747 0
DWIDTH 14 0
BBX 13 14 0 0
BITMAP
3FF8
7E70
FE70
FE70
FE70
FE70
7E70
3E70
0E70
0E70
0E70
0E70
0E70
1FF8
ENDCHAR
STARTCHAR periodcentered
ENCODING 183
SWIDTH 278 0
DWIDTH 5 0
BBX 4 4 0 3
BITMAP
60
F0
F0
60
ENDCHAR
STARTCHAR cedilla
ENCODING 184
SWIDTH 333 0
DWIDTH 6 0
BBX 4 4 1 -4
BITMAP
40
70
30
E0
ENDCHAR
STARTCHAR onesuperior
ENCODING 185
SWIDTH 344 0
DWIDTH 6 0
BBX 6 8 0 6
BITMAP
30
F0
30
30
30
30
30
FC
ENDCHAR
STARTCHAR ordmasculine
ENCODING 186
SWIDTH 367 0
DWIDTH 7 0
BBX 6 8 0 6
BITMAP
78
CC
CC
CC
CC
78
00
FC
ENDCHAR
STARTCHAR guillemotright
ENCODING 187
SWIDTH 500 0
DWIDTH 9 0
BBX 8 5 0 3
BITMAP
88
66
33
66
88
ENDCHAR
STARTCHAR onequarter
ENCODING 188
SWIDTH 861 0
DWIDTH 15 0
BBX 14 14 0 0
BITMAP
3060
F060
30C0
30C0
3180
3180
3318
FF38
0678
06D8
0D98
0DFC
1818
183C
ENDCHAR
STARTCHAR onehalf
ENCODING 189
SWIDTH 861 0
DWIDTH 15 0
BBX 14 14 0 0
BITMAP
3060
F060
30C0
30C0
3180
3180
3378
FFCC
06CC
0618
0C30
0C60
18C4
18FC
ENDCHAR
STARTCHAR threequarters
ENCODING 190
SWIDTH 861 0
DWIDTH 15 0
BBX 14 14 0 0
BITMAP
7860
CC60
0CC0
38C0
0D80
CD80
CF18
7B38
0678
06D8
0D98
0DFC
1818
183C
ENDCHAR
STARTCHAR questiondown
ENCODING 191
SWIDTH 500 0
DWIDTH 10 0
BBX 9 14 0 -4
BITMAP
0C00
1E00
1E00
0C00
0000
0C00
1800
3000
6000
E300
E380
E380
F300
7C00
ENDCHAR
STARTCHAR Agrave
ENCODING 192
SWIDTH 759 0
DWIDTH 14 0
BBX 14 19 0 0
BITMAP
1800
1C00
0E00
0300
0000
0300
0300
0780
0780
0F80
09C0
09C0
19E0
10E0
3FE0
20F0
6070
4078
E0FC
ENDCHAR
STARTCHAR Aacute
ENCODING 193
SWIDTH 759 0
DWIDTH 14 0
BBX 14 19 0 0
BITMAP
0060
00E0
01C0
0300
0000
0300
0300
0780
0780
0F80
09C0
09C0
19E0
10E0
3FE0
20F0
6070
4078
E0FC
ENDCHAR
STARTCHAR Acircumflex
ENCODING 194
SWIDTH 759 0
DWIDTH 14 0
BBX 14 18 0 0
BITMAP
0380
07C0
0C60
0000
0300
0300
0780
0780
0F80
09C0
09C0
19E0
10E0
3FE0
20F0
6070
4078
E0FC
ENDCHAR
STARTCHAR Atilde
ENCODING 195
SWIDTH 759 0
DWIDTH 14 0
BBX 14 18 0 0
BITMAP
0620
0FC0
1180
0000
0300
0300
0780
0780
0F80
09C0
09C0
19E0
10E0
3FE0
20F0
6070
4078
E0FC
ENDCHAR
STARTCHAR Adieresis
ENCODING 196
SWIDTH 759 0
DWIDTH 14 0
BBX 14 17 0 0
BITMAP
0CC0
0CC0
0000
0300
0300
0780
0780
0F80
09C0
09C0
19E0
10E0
3FE0
20F0
6070
4078
E0FC
ENDCHAR
STARTCHAR Aring
ENCODING 197
SWIDTH 759 0
DWIDTH 14 0
BBX 14 18 0 0
BITMAP
0300
0480
0480
0300
0300
0300
0780
0780
0F80
09C0
09C0
19E0
10E0
3FE0
20F0
6070
4078
E0FC
ENDCHAR
STARTCHAR AE
ENCODING 198
SWIDTH 981 0
DWIDTH 21 0
BBX 20 14 0 0
BITMAP
03FFF0
00B870
01B830
013890
033890
063980
043F80
0C3980
1FF880
103890
203810
203830
603870
F1FFF0
ENDCHAR
STARTCHAR Ccedilla
ENCODING 199
SWIDTH 778 0
DWIDTH 14 0
BBX 12 18 1 -4
BITMAP
0F90
3C70
7830
7030
F010
E010
E000
E000
E000
F010
7010
7820
3C60
0F80
0400
0700
0300
0E00
ENDCHAR
STARTCHAR Egrave
ENCODING 200
SWIDTH 759 0
DWIDTH 13 0
BBX 11 19 1 0
BITMAP
3000
3800
1C00
0600
0000
FFE0
70E0
7060
7120
7120
7300
7F00
7300
7100
7120
7020
7060
70E0
FFE0
ENDCHAR
STARTCHAR Eacute
ENCODING 201
SWIDTH 759 0
DWIDTH 13 0
BBX 11 19 1 0
BITMAP
0180
0380
0700
0C00
0000
FFE0
70E0
7060
7120
7120
7300
7F00
7300
7100
7120
7020
7060
70E0
FFE0
ENDCHAR
STARTCHAR Ecircumflex
ENCODING 202
SWIDTH 759 0
DWIDTH 13 0
BBX 11 18 1 0
BITMAP
0E00
1F00
3180
0000
FFE0
70E0
7060
7120
7120
7300
7F00
7300
7100
7120
7020
7060
70E0
FFE0
ENDCHAR
STARTCHAR Edieresis
ENCODING 203
SWIDTH 759 0
DWIDTH 13 0
BBX 11 17 1 0
BITMAP
1980
1980
0000
FFE0
70E0
7060
7120
7120
7300
7F00
7300
7100
7120
7020
7060
70E0
FFE0
ENDCHAR
STARTCHAR Igrave
ENCODING 204
SWIDTH 444 0
DWIDTH 9 0
BBX 5 19 2 0
BITMAP
C0
E0
70
18
00
F8
70
70
70
70
70
70
70
70
70
70
70
70
F8
ENDCHAR
STARTCHAR Iacute
ENCODING 205
SWIDTH 444 0
DWIDTH 9 0
BBX 6 19 2 0
BITMAP
0C
1C
38
60
00
F8
70
70
70
70
70
70
70
70
70
70
70
70
F8
ENDCHAR
STARTCHAR Icircumflex
ENCODING 206
SWIDTH 444 0
DWIDTH 9 0
BBX 7 18 1 0
BITMAP
38
7C
C6
00
7C
38
38
38
38
38
38
38
38
38
38
38
38
7C
ENDCHAR
STARTCHAR Idieresis
ENCODING 207
SWIDTH 444 0
DWIDTH 9 0
BBX 6 17 2 0
BITMAP
CC
CC
00
F8
70
70
70
70
70
70
70
70
70
70
70
70
F8
ENDCHAR
STARTCHAR Eth
ENCODING 208
SWIDTH 833 0
DWIDTH 16 0
BBX 15 14 0 0
BITMAP
7FE0
3878
383C
381C
381E
380E
FE0E
380E
380E
381E
381C
383C
3878
7FE0
ENDCHAR
STARTCHAR Ntilde
ENCODING 209
SWIDTH 833 0
DWIDTH 16 0
BBX 15 18 1 0
BITMAP
0310
07E0
08C0
0000
F83E
7C1C
3C08
3E08
2F08
2788
2388
21C8
21E8
20E8
2078
2078
7038
F818
ENDCHAR
STARTCHAR Ograve
ENCODING 210
SWIDTH 833 0
DWIDTH 16 0
BBX 15 19 0 0
BITMAP
0C00
0E00
0700
0180
0000
0FE0
3C78
783C
701C
F01E
E00E
E00E
E00E
E00E
F01E
701C
783C
3C78
0FE0
ENDCHAR
STARTCHAR Oacute
ENCODING 211
SWIDTH 833 0
DWIDTH 16 0
BBX 15 19 0 0
BITMAP
0060
00E0
01C0
0300
0000
0FE0
3C78
783C
701C
F01E
E00E
E00E
E00E
E00E
F01E
701C
783C
3C78
0FE0
ENDCHAR
STARTCHAR Ocircumflex
ENCODING 212
SWIDTH 833 0
DWIDTH 16 0
BBX 15 18 0 0
BITMAP
0380
07C0
0C60
0000
0FE0
3C78
783C
701C
F01E
E00E
E00E
E00E
E00E
F01E
701C
783C
3C78
0FE0
ENDCHAR
STARTCHAR Otilde
ENCODING 213
SWIDTH 833 0
DWIDTH 16 0
BBX 15 18 0 0
BITMAP
0310
07E0
08C0
0000
0FE0
3C78
783C
701C
F01E
E00E
E00E
E00E
E00E
F01E
701C
783C
3C78
0FE0
ENDCHAR
STARTCHAR Odieresis
ENCODING 214
SWIDTH 833 0
DWIDTH 16 0
BBX 15 17 0 0
BITMAP
0660
0660
0000
0FE0
3C78
783C
701C
F01E
E00E
E00E
E00E
E00E
F01E
701C
783C
3C78
0FE0
ENDCHAR
STARTCHAR multiply
ENCODING 215
SWIDTH 606 0
DWIDTH 11 0
BBX 10 10 0 0
BITMAP
C0C0
E1C0
7380
3F00
1E00
1E00
3F00
7380
E1C0
C0C0
ENDCHAR
STARTCHAR Oslash
ENCODING 216
SWIDTH 833 0
DWIDTH 16 0
BBX 14 14 1 0
BITMAP
0FC8
38F0
7078
7078
E0BC
E11C
E21C
E21C
E41C
E83C
7038
7078
78F0
8FC0
ENDCHAR
STARTCHAR Ugrave
ENCODING 217
SWIDTH 833 0
DWIDTH 16 0
BBX 14 19 1 0
BITMAP
0C00
0E00
0700
0180
0000
F87C
7038
7010
7010
7010
7010
7010
7010
7010
7010
7010
7010
3820
1FC0
ENDCHAR
STARTCHAR Uacute
ENCODING 218
SWIDTH 833 0
DWIDTH 16 0
BBX 14 19 1 0
BITMAP
00C0
01C0
0380
0600
0000
F87C
7038
7010
7010
7010
7010
7010
7010
7010
7010
7010
7010
3820
1FC0
ENDCHAR
STARTCHAR Ucircumflex
ENCODING 219
SWIDTH 833 0
DWIDTH 16 0
BBX 14 18 1 0
BITMAP
0380
07C0
0C60
0000
F87C
7038
7010
7010
7010
7010
7010
7010
7010
7010
7010
7010
3820
1FC0
ENDCHAR
STARTCHAR Udieresis
ENCODING 220
SWIDTH 833 0
DWIDTH 16 0
BBX 14 17 1 0
BITMAP
0CC0
0CC0
0000
F87C
7038
7010
7010
7010
7010
7010
7010
7010
7010
7010
7010
3820
1FC0
ENDCHAR
STARTCHAR Yacute
ENCODING 221
SWIDTH 722 0
DWIDTH 15 0
BBX 13 19 1 0
BITMAP
0060
00E0
01C0
0300
0000
F878
7030
7820
3860
3C40
1CC0
1F80
0F80
0F00
0700
0700
0700
0700
0F80
ENDCHAR
STARTCHAR Thorn
ENCODING 222
SWIDTH 759 0
DWIDTH 14 0
BBX 12 14 1 0
BITMAP
F800
7000
7000
7FC0
70F0
7070
7070
7070
7070
70E0
7F80
7000
7000
F800
ENDCHAR
STARTCHAR germandbls
ENCODING 223
SWIDTH 611 0
DWIDTH 12 0
BBX 11 14 0 0
BITMAP
1E00
3380
71C0
71C0
71C0
7180
7700
71C0
70E0
70E0
70E0
70E0
71C0
F700
ENDCHAR
STARTCHAR agrave
ENCODING 224
SWIDTH 611 0
DWIDTH 11 0
BBX 10 14 0 0
BITMAP
3000
3800
1C00
0600
0000
7F00
E380
C380
0780
3B80
E380
E380
E780
7BC0
ENDCHAR
STARTCHAR aacute
ENCODING 225
SWIDTH 611 0
DWIDTH 11 0
BBX 10 14 0 0
BITMAP
0600
0E00
1C00
3000
0000
7F00
E380
C380
0780
3B80
E380
E380
E780
7BC0
ENDCHAR
STARTCHAR acircumflex
ENCODING 226
SWIDTH 611 0
DWIDTH 11 0
BBX 10 13 0 0
BITMAP
1C00
3E00
6300
0000
7F00
E380
C380
0780
3B80
E380
E380
E780
7BC0
ENDCHAR
STARTCHAR atilde
ENCODING 227
SWIDTH 611 0
DWIDTH 11 0
BBX 10 13 0 0
BITMAP
1880
3F00
4600
0000
7F00
E380
C380
0780
3B80
E380
E380
E780
7BC0
ENDCHAR
STARTCHAR adieresis
ENCODING 228
SWIDTH 611 0
DWIDTH 11 0
BBX 10 12 0 0
BITMAP
3300
3300
0000
7F00
E380
C380
0780
3B80
E380
E380
E780
7BC0
ENDCHAR
STARTCHAR aring
ENCODING 229
SWIDTH 611 0
DWIDTH 11 0
BBX 10 14 0 0
BITMAP
0C00
1200
1200
0C00
0000
7F00
E380
C380
0780
3B80
E380
E380
E780
7BC0
ENDCHAR
STARTCHAR ae
ENCODING 230
SWIDTH 870 0
DWIDTH 17 0
BBX 16 9 0 0
BITMAP
3F78
63CE
E387
0787
3BFF
E380
E381
E7C3
78FC
ENDCHAR
STARTCHAR ccedilla
ENCODING 231
SWIDTH 556 0
DWIDTH 10 0
BBX 9 13 0 -4
BITMAP
1F00
7380
E180
E000
E000
E000
E080
7180
1E00
1000
1C00
0C00
3800
ENDCHAR
STARTCHAR egrave
ENCODING 232
SWIDTH 574 0
DWIDTH 11 0
BBX 10 14 0 0
BITMAP
3000
3800
1C00
0600
0000
1E00
7380
E1C0
E1C0
FFC0
E000
E040
70C0
1F00
ENDCHAR
STARTCHAR eacute
ENCODING 233
SWIDTH 574 0
DWIDTH 11 0
BBX 10 14 0 0
BITMAP
0600
0E00
1C00
3000
0000
1E00
7380
E1C0
E1C0
FFC0
E000
E040
70C0
1F00
ENDCHAR
STARTCHAR ecircumflex
ENCODING 234
SWIDTH 574 0
DWIDTH 11 0
BBX 10 13 0 0
BITMAP
0E00
1F00
3180
0000
1E00
7380
E1C0
E1C0
FFC0
E000
E040
70C0
1F00
ENDCHAR
STARTCHAR edieresis
ENCODING 235
SWIDTH 574 0
DWIDTH 11 0
BBX 10 12 0 0
BITMAP
3300
3300
0000
1E00
7380
E1C0
E1C0
FFC0
E000
E040
70C0
1F00
ENDCHAR
STARTCHAR igrave
ENCODING 236
SWIDTH 370 0
DWIDTH 6 0
BBX 5 14 0 0
BITMAP
C0
E0
70
18
00
F0
70
70
70
70
70
70
70
F8
ENDCHAR
STARTCHAR iacute
ENCODING 237
SWIDTH 370 0
DWIDTH 6 0
BBX 5 14 0 0
BITMAP
18
38
70
C0
00
F0
70
70
70
70
70
70
70
F8
ENDCHAR
STARTCHAR icircumflex
ENCODING 238
SWIDTH 370 0
DWIDTH 6 0
BBX 7 13 -1 0
BITMAP
38
7C
C6
00
78
38
38
38
38
38
38
38
7C
ENDCHAR
STARTCHAR idieresis
ENCODING 239
SWIDTH 370 0
DWIDTH 6 0
BBX 6 12 0 0
BITMAP
CC
CC
00
F0
70
70
70
70
70
70
70
F8
ENDCHAR
STARTCHAR eth
ENCODING 240
SWIDTH 611 0
DWIDTH 12 0
BBX 11 14 0 0
BITMAP
6000
1B00
1C00
6600
0300
1F80
71C0
E0E0
E0E0
E0E0
E0E0
E0E0
71C0
1F00
ENDCHAR
STARTCHAR ntilde
ENCODING 241
SWIDTH 685 0
DWIDTH 13 0
BBX 12 13 0 0
BITMAP
0C40
1F80
2300
0000
F7C0
79E0
70E0
70E0
70E0
70E0
70E0
70E0
F9F0
ENDCHAR
STARTCHAR ograve
ENCODING 242
SWIDTH 611 0
DWIDTH 12 0
BBX 11 14 0 0
BITMAP
1800
1C00
0E00
0300
0000
1F00
71C0
E0E0
E0E0
E0E0
E0E0
E0E0
71C0
1F00
ENDCHAR
STARTCHAR oacute
ENCODING 243
SWIDTH 611 0
DWIDTH 12 0
BBX 11 14 0 0
BITMAP
0300
0700
0E00
1800
0000
1F00
71C0
E0E0
E0E0
E0E0
E0E0
E0E0
71C0
1F00
ENDCHAR
STARTCHAR ocircumflex
ENCODING 244
SWIDTH 611 0
DWIDTH 12 0
BBX 11 13 0 0
BITMAP
0E00
1F00
3180
0000
1F00
71C0
E0E0
E0E0
E0E0
E0E0
E0E0
71C0
1F00
ENDCHAR
STARTCHAR otilde
ENCODING 245
SWIDTH 611 0
DWIDTH 12 0
BBX 11 13 0 0
BITMAP
1880
3F00
4600
0000
1F00
71C0
E0E0
E0E0
E0E0
E0E0
E0E0
71C0
1F00
ENDCHAR
STARTCHAR odieresis
ENCODING 246
SWIDTH 611 0
DWIDTH 12 0
BBX 11 12 0 0
BITMAP
1980
1980
0000
1F00
71C0
E0E0
E0E0
E0E0
E0E0
E0E0
71C0
1F00
ENDCHAR
STARTCHAR divide
ENCODING 247
SWIDTH 606 0
DWIDTH 11 0
BBX 10 10 0 0
BITMAP
0C00
0C00
0000
0000
FFC0
FFC0
0000
0000
0C00
0C00
ENDCHAR
STARTCHAR oslash
ENCODING 248
SWIDTH 611 0
DWIDTH 11 0
BBX 10 11 0 -1
BITMAP
0100
1F00
7380
E3C0
E5C0
E5C0
E9C0
E9C0
7380
3E00
2000
ENDCHAR
STARTCHAR ugrave
ENCODING 249
SWIDTH 685 0
DWIDTH 13 0
BBX 12 14 0 0
BITMAP
1800
1C00
0E00
0300
0000
F1E0
70E0
70E0
70E0
70E0
70E0
70E0
79E0
3EF0
ENDCHAR
STARTCHAR uacute
ENCODING 250
SWIDTH 685 0
DWIDTH 13 0
BBX 12 14 0 0
BITMAP
0180
0380
0700
0C00
0000
F1E0
70E0
70E0
70E0
70E0
70E0
70E0
79E0
3EF0
ENDCHAR
STARTCHAR ucircumflex
ENCODING 251
SWIDTH 685 0
DWIDTH 13 0
BBX 12 13 0 0
BITMAP
0700
0F80
18C0
0000
F1E0
70E0
70E0
70E0
70E0
70E0
70E0
79E0
3EF0
ENDCHAR
STARTCHAR udieresis
ENCODING 252
SWIDTH 685 0
DWIDTH 13 0
BBX 12 12 0 0
BITMAP
1980
1980
0000
F1E0
70E0
70E0
70E0
70E0
70E0
70E0
79E0
3EF0
ENDCHAR
STARTCHAR yacute
ENCODING 253
SWIDTH 611 0
DWIDTH 12 0
BBX 11 18 0 -4
BITMAP
0180
0380
0700
0C00
0000
F8E0
7040
7040
3880
3880
1D00
1D00
0E00
0E00
0400
C400
E800
7000
ENDCHAR
STARTCHAR thorn
ENCODING 254
SWIDTH 667 0
DWIDTH 12 0
BBX 12 18 -1 -4
BITMAP
F000
7000
7000
7000
7000
7780
78E0
7070
7070
7070
7070
7070
78E0
7780
7000
7000
7000
F800
ENDCHAR
STARTCHAR ydieresis
ENCODING 255
SWIDTH 611 0
DWIDTH 12 0
BBX 11 16 0 -4
BITMAP
1980
1980
0000
F8E0
7040
7040
3880
3880
1D00
1D00
0E00
0E00
0400
C400
E800
7000
ENDCHAR
ENDFONT
